<svg width="200" height="200" viewBox="0 0 200 200" xmlns="http://www.w3.org/2000/svg">
  <defs>
    <linearGradient id="frogGradient" x1="0%" y1="0%" x2="100%" y2="100%">
      <stop offset="0%" style="stop-color:#84cc16;stop-opacity:1" />
      <stop offset="50%" style="stop-color:#65a30d;stop-opacity:1" />
      <stop offset="100%" style="stop-color:#4d7c0f;stop-opacity:1" />
    </linearGradient>
  </defs>
  
  <!-- Background -->
  <rect width="200" height="200" fill="#dcfce7" rx="20"/>
  
  <!-- Frog body -->
  <ellipse cx="100" cy="130" rx="45" ry="35" fill="url(#frogGradient)"/>
  
  <!-- Head -->
  <ellipse cx="100" cy="85" rx="30" ry="25" fill="url(#frogGradient)"/>
  
  <!-- Eyes -->
  <circle cx="85" cy="75" r="8" fill="#1f2937"/>
  <circle cx="115" cy="75" r="8" fill="#1f2937"/>
  <circle cx="85" cy="70" r="3" fill="#ffffff"/>
  <circle cx="115" cy="70" r="3" fill="#ffffff"/>
  
  <!-- Mouth (Pacman style) -->
  <path d="M 75 90 A 15 15 0 0 1 125 90 L 100 110 Z" fill="#1f2937"/>
  
  <!-- Spots on body -->
  <circle cx="80" cy="120" r="4" fill="#4d7c0f"/>
  <circle cx="120" cy="120" r="4" fill="#4d7c0f"/>
  <circle cx="90" cy="140" r="3" fill="#4d7c0f"/>
  <circle cx="110" cy="140" r="3" fill="#4d7c0f"/>
  
  <!-- Front legs -->
  <ellipse cx="70" cy="150" rx="12" ry="8" fill="url(#frogGradient)"/>
  <ellipse cx="130" cy="150" rx="12" ry="8" fill="url(#frogGradient)"/>
  
  <!-- Back legs -->
  <ellipse cx="60" cy="160" rx="15" ry="10" fill="url(#frogGradient)"/>
  <ellipse cx="140" cy="160" rx="15" ry="10" fill="url(#frogGradient)"/>
  
  <!-- Text -->
  <text x="100" y="180" text-anchor="middle" font-family="Arial, sans-serif" font-size="12" fill="#4d7c0f">Pacman Frog</text>
</svg>
