<svg width="1024" height="600" viewBox="0 0 1024 600" xmlns="http://www.w3.org/2000/svg">
  <defs>
    <linearGradient id="heroGradient" x1="0%" y1="0%" x2="100%" y2="100%">
      <stop offset="0%" style="stop-color:#f97316;stop-opacity:1" />
      <stop offset="50%" style="stop-color:#ea580c;stop-opacity:1" />
      <stop offset="100%" style="stop-color:#c2410c;stop-opacity:1" />
    </linearGradient>
    <linearGradient id="desertGradient" x1="0%" y1="0%" x2="100%" y2="100%">
      <stop offset="0%" style="stop-color:#fef3c7;stop-opacity:1" />
      <stop offset="50%" style="stop-color:#fde68a;stop-opacity:1" />
      <stop offset="100%" style="stop-color:#f59e0b;stop-opacity:1" />
    </linearGradient>
  </defs>
  
  <!-- Background -->
  <rect width="1024" height="600" fill="url(#desertGradient)"/>
  
  <!-- Desert landscape -->
  <ellipse cx="512" cy="580" rx="600" ry="100" fill="#92400e"/>
  
  <!-- Dragon silhouette (large) -->
  <ellipse cx="512" cy="400" rx="120" ry="80" fill="url(#heroGradient)"/>
  <ellipse cx="512" cy="320" rx="80" ry="60" fill="url(#heroGradient)"/>
  
  <!-- Dragon head details -->
  <ellipse cx="512" cy="280" rx="60" ry="40" fill="url(#heroGradient)"/>
  
  <!-- Eyes -->
  <circle cx="490" cy="270" r="12" fill="#1f2937"/>
  <circle cx="534" cy="270" r="12" fill="#1f2937"/>
  <circle cx="490" cy="260" r="6" fill="#ffffff"/>
  <circle cx="534" cy="260" r="6" fill="#ffffff"/>
  
  <!-- Bearded spikes -->
  <path d="M 450 290 L 440 310 L 450 330" stroke="#92400e" stroke-width="4" fill="none" stroke-linecap="round"/>
  <path d="M 470 300 L 460 320 L 470 340" stroke="#92400e" stroke-width="4" fill="none" stroke-linecap="round"/>
  <path d="M 490 305 L 480 325 L 490 345" stroke="#92400e" stroke-width="4" fill="none" stroke-linecap="round"/>
  <path d="M 510 300 L 500 320 L 510 340" stroke="#92400e" stroke-width="4" fill="none" stroke-linecap="round"/>
  <path d="M 530 290 L 520 310 L 530 330" stroke="#92400e" stroke-width="4" fill="none" stroke-linecap="round"/>
  
  <!-- Spikes on back -->
  <path d="M 400 380 L 420 360 L 440 380" stroke="#92400e" stroke-width="6" fill="none" stroke-linecap="round"/>
  <path d="M 440 390 L 460 370 L 480 390" stroke="#92400e" stroke-width="6" fill="none" stroke-linecap="round"/>
  <path d="M 480 400 L 500 380 L 520 400" stroke="#92400e" stroke-width="6" fill="none" stroke-linecap="round"/>
  <path d="M 520 390 L 540 370 L 560 390" stroke="#92400e" stroke-width="6" fill="none" stroke-linecap="round"/>
  <path d="M 560 380 L 580 360 L 600 380" stroke="#92400e" stroke-width="6" fill="none" stroke-linecap="round"/>
  
  <!-- Tail -->
  <path d="M 632 400 Q 700 320 750 400" stroke="url(#heroGradient)" stroke-width="25" fill="none" stroke-linecap="round"/>
  
  <!-- Legs -->
  <ellipse cx="450" cy="480" rx="20" ry="12" fill="url(#heroGradient)"/>
  <ellipse cx="574" cy="480" rx="20" ry="12" fill="url(#heroGradient)"/>
  
  <!-- Sun -->
  <circle cx="800" cy="120" r="60" fill="#fbbf24"/>
  <circle cx="800" cy="120" r="50" fill="#f59e0b"/>
  
  <!-- Sun rays -->
  <path d="M 800 50 L 800 30" stroke="#fbbf24" stroke-width="8" stroke-linecap="round"/>
  <path d="M 800 210 L 800 190" stroke="#fbbf24" stroke-width="8" stroke-linecap="round"/>
  <path d="M 740 120 L 720 120" stroke="#fbbf24" stroke-width="8" stroke-linecap="round"/>
  <path d="M 880 120 L 860 120" stroke="#fbbf24" stroke-width="8" stroke-linecap="round"/>
  
  <!-- Cacti -->
  <ellipse cx="200" cy="500" rx="15" ry="80" fill="#84cc16"/>
  <ellipse cx="200" cy="420" rx="20" ry="60" fill="#84cc16"/>
  <ellipse cx="200" cy="360" rx="15" ry="40" fill="#84cc16"/>
  
  <ellipse cx="850" cy="520" rx="12" ry="70" fill="#84cc16"/>
  <ellipse cx="850" cy="450" rx="18" ry="50" fill="#84cc16"/>
  
  <!-- Text overlay area (for the dark overlay in CSS) -->
  <rect x="0" y="0" width="1024" height="600" fill="none"/>
</svg>
